<svg width="955" height="1024" xmlns="http://www.w3.org/2000/svg" xml:space="preserve">
 <switch>
  <g id="svg_1">
   <path id="svg_2" fill="currentColor" d="m204.643,784.857l545.714,0l0,68.214l-545.714,0l0,-68.214zm613.927,-136.427l-682.14,0c-40.929,0 -68.215,-27.286 -68.215,-68.215l0,-409.285c0,-40.929 27.286,-68.215 68.215,-68.215l682.14,0c40.929,0 68.215,27.286 68.215,68.215l0,409.285c0,40.929 -27.286,68.215 -68.215,68.215zm-682.142,-477.5l0,409.285l682.142,0l0,-409.285l-682.14,0l-0.002,0zm0,-34.108l0,34.108l0,-34.108z"/>
   <path id="svg_3" fill="currentColor" d="m204.643,239.143l409.286,0l0,68.214l-409.286,0l0,-68.214zm0,136.428l272.857,0l0,68.215l-272.857,0l0,-68.216l0,0.001z"/>
  </g>
 </switch>

 <g>
  <title>Layer 1</title>
 </g>
</svg>