<svg width="1024" height="1024" xmlns="http://www.w3.org/2000/svg">

 <g>
  <title>Layer 1</title>
  <path id="svg_1" d="m512.25,64.791c-246.512,0 -446.35,199.838 -446.35,446.35c0,241.551 191.875,438.287 431.524,446.108a400.211,400.211 0 0 0 6.857,0.151l8.069,0l0,-72.172l-0.099,-0.001l-0.015,0l-0.856,-0.008l-0.969,-0.01l-1.344,-0.013c-1.676,-0.016 -3.854,-0.039 -6.135,-0.064l-1.009,-0.011c-5.283,-0.06 -10.791,-0.133 -11.716,-0.187c-57.13,-3.316 -110.824,-19.442 -158.25,-45.547c39.748,-52.606 61.858,-117.01 61.858,-184.809c0,-23.163 -2.842,-47.04 -8.107,-69.377c-15.697,-83.059 -88.648,-145.879 -176.271,-145.879c-23.369,0 -46.047,4.501 -67.016,12.945c17.804,-112.732 85.916,-208.739 180.622,-264.305a181.005,181.005 0 0 0 -1.147,20.367c0,99.078 80.319,179.396 179.397,179.396c33.089,0 64.931,-9.006 92.65,-25.751c33.453,-17.669 70.788,-27.042 109.557,-27.042c64.366,0 124.416,26.002 168.15,70.835c8.713,29.767 13.829,61.071 14.844,93.409c0.053,1.703 0.092,4.694 0.118,7.26c0.013,1.283 0.022,2.459 0.029,3.315l0.007,1.016l0.002,0.368l0,0.106l63.87,0l0.035,-0.001a329.362,329.362 0 0 1 7.256,-0.007l0.23,0.002l0.223,0.003l0.147,0.002l0.01,0l0.103,0.002l-0.001,-0.103c-0.004,-0.306 -0.007,-2.738 -0.011,-5.048l0,-0.147c-0.003,-2.087 -0.006,-4.036 -0.008,-4.164c-4.983,-242.19 -202.87,-436.989 -446.254,-436.989zm-106.985,95.197a107.044,107.044 0 0 1 5.295,-9.304c32.335,-9.104 66.444,-13.974 101.69,-13.974c120.112,0 227.015,56.556 295.532,144.491c-32.889,-11.872 -68.075,-18.187 -104.282,-18.187c-51.208,0 -100.671,12.584 -144.839,36.268l-0.02,-0.032l-0.084,0.053l-0.165,0.104l-0.135,0.085l-0.081,0.051l-0.001,0c-5.651,3.631 -15.005,7.697 -25.384,10.856c-10.378,3.159 -21.771,5.408 -31.498,5.408c-59.359,0 -107.478,-48.12 -107.478,-107.478c0,-17.067 3.955,-33.492 11.45,-48.341zm-132.771,638.764c-75.931,-63.367 -126.383,-156.239 -133.739,-261c19.386,-16.955 44.242,-26.511 70.688,-26.511c43.13,0 80.015,25.12 97.95,61.836c16.464,37.669 15.126,67.104 14.622,78.2l0,0.005c-0.063,1.392 -0.113,2.499 -0.113,3.296c0,53.123 -17.664,103.407 -49.408,144.174zm235.855,-246.266c13.735,-11.649 30.764,-16.595 48.394,-16.595l48.351,0l0,70l-48.351,0c-1.426,0 -2.391,0.11 -3.002,0.224c-0.197,0.49 -0.445,1.246 -0.685,2.352c-1.83,8.411 -0.399,24.887 7.972,45.913c8.033,20.177 20.696,39.989 35.251,54.215c11.187,10.935 21.588,16.825 30.404,19.075c6.414,-8.012 16.277,-13.144 27.339,-13.144c11.203,0 21.177,5.264 27.583,13.453c9.086,-1.987 19.962,-7.906 31.705,-19.384c14.555,-14.226 27.218,-34.038 35.251,-54.215c8.371,-21.026 9.802,-37.502 7.972,-45.913c-0.24,-1.106 -0.488,-1.862 -0.685,-2.352c-0.611,-0.114 -1.576,-0.224 -3.002,-0.224l-48.351,0l0,-70l48.351,0c17.63,0 34.659,4.946 48.394,16.595c13.497,11.447 20.536,26.588 23.693,41.1c6.038,27.752 -0.511,59.494 -11.337,86.686c-11.163,28.04 -28.913,56.446 -51.356,78.382c-19.065,18.634 -44.058,34.947 -73.218,39.092l0,61.905c0,16.473 13.353,29.826 29.826,29.826c16.472,0 29.825,-13.353 29.825,-29.826l0,-13.964l-0.209,0l0,-15.172c0,-55.133 44.694,-99.826 99.826,-99.826c55.132,0 99.825,44.693 99.825,99.826l0,124.876l-70,0l0,-124.876c0,-16.473 -13.353,-29.826 -29.825,-29.826c-16.473,0 -29.826,13.353 -29.826,29.826l0,10.113c0.138,1.265 0.209,2.55 0.209,3.851l0,15.172c0,55.132 -44.693,99.826 -99.825,99.826c-55.133,0 -99.826,-44.694 -99.826,-99.826l0,-62.137c-28.498,-4.492 -52.946,-20.556 -71.673,-38.86c-22.443,-21.936 -40.193,-50.342 -51.357,-78.382c-10.825,-27.192 -17.374,-58.934 -11.337,-86.686c3.158,-14.512 10.197,-29.653 23.694,-41.1zm45.774,52.864a0.393,0.393 0 0 1 -0.057,0.082a0.442,0.442 0 0 1 0.057,-0.082zm-1.089,0.939a1.08,1.08 0 0 1 -0.144,0.069c-0.017,0.006 -0.027,0.008 -0.028,0.007c-0.004,-0.004 0.049,-0.034 0.172,-0.076zm202.432,-0.939a0.393,0.393 0 0 0 0.057,0.082a0.442,0.442 0 0 0 -0.057,-0.082zm1.089,0.94a0.572,0.572 0 0 0 0.172,0.075c0.004,-0.004 -0.049,-0.034 -0.172,-0.075z" fill="#00B4CC"/>
 </g>
</svg>